<?xml version="1.0" encoding="UTF-8"?>
<svg id="Layer_1" data-name="Layer 1" xmlns="http://www.w3.org/2000/svg" viewBox="0 0 454.63 224.95">
  <defs>
    <style>
      .cls-1 {
        fill: #fff;
      }
    </style>
  </defs>
  <path d="M350.8,165.05c-6.11,5.46-14.04,8.75-22.46,9.52h-197.55c-16.6-1.28-31.31-13.01-33.11-29.06l-.02-116.18C99.72,12.14,114.9.93,132.64,0h193.85c17.42.96,32.64,12.17,34.66,29.04l-.02,116.76c-.83,7.49-4.64,14.15-10.34,19.24ZM328.48,26.28h-198.45v121.57l.46.44h197.21c.1,0,.47-.39.77-.29V26.28Z"/>
  <path d="M375.28,205.83l5.43,14.55,5.73-14.13,1.67-.49,6.01,14.62,5.57-14.13c.59-.81,1.84-.38,2.75-.46l-6.83,18.63-2.75-.14-5.37-13.52-5.56,13.41c-.43.48-2.04.79-2.61.46-.89-.52-5.81-15.82-7.01-17.88l-.07-.95,3.04.04Z"/>
  <path d="M202.3,216.3c-1.59-.19-2.98-.88-3.22-2.5-.16-1.06-.19-4.78.04-5.76.4-1.66,2.25-2.14,3.78-2.26,2.57-.21,11.17-.33,13.36.21s2.59,2.34,2.54,4.29l-2.79.76v-2.63h-14.18v5.25h14.95c.37,0,1.57,1.12,1.77,1.54.9,1.9,1.08,8.1-1.38,9.04-2.12.81-11.01.69-13.65.52-2.75-.18-4.78-.24-5.31-3.15-.44-2.44.52-2.01,2.56-2.65.78.12.35,2.56.45,3.16h14.79v-5.84c-4.3-.37-9.52.5-13.71,0Z"/>
  <path d="M437.41,216.3c-.1-.01-1.83-.61-1.91-.67-1.33-.9-1.22-5.81-.94-7.29.35-1.83,1.98-2.41,3.77-2.56,3.03-.25,8.7-.24,11.73,0,3.24.26,4.24,1.39,4.17,4.5l-2.79.76v-2.63h-14.18v4.82l.46.44h14.17c.43,0,1.55.77,1.84,1.18,1.28,1.8,1.41,8.43-1.15,9.4-2.11.8-11.02.7-13.65.52-3.91-.26-5.56-1-5.4-5.1l2.65-.7c.78.12.36,2.56.45,3.16h14.79v-5.84c-4.34-.41-9.82.56-14.02,0Z"/>
  <polygon points="78.89 205.79 78.89 208.42 63.17 208.42 63.17 213.67 73.03 213.67 72.72 216.01 63.17 216.01 63.17 222.14 79.19 222.14 79.15 224.28 78.42 224.76 59.78 224.47 59.78 205.79 78.89 205.79"/>
  <path d="M232.34,208.42v4.82l.46.44h9.09v2.34h-9.55v6.13h16.02l-.04,2.15-.73.48-18.64-.29v-18.24l.46-.44h18.49c.72.58.72,2.04,0,2.63h-15.56Z"/>
  <path d="M170.71,222.14h14.48v-15.91c.43-.67,2.93-.61,3.26-.16,0,4.37.46,9.23.13,13.59-.14,1.79-.23,4.2-2.38,4.75-2.63.68-13.81.63-16.5,0-1.22-.29-2.39-1.52-2.39-2.7v-15.47l.51-.39c.39-.08.79-.06,1.18-.06.63,0,1.3-.1,1.69.46v15.91Z"/>
  <path d="M104.77,205.79v7.44l.46.44h15.1l.46-.44v-7.44h3.08v18.97c-1.09-.38-2.35.34-3.26-.58-.13-.2.18-.38.18-.44v-7.3l-.46-.44h-15.1l-.46.44v8.32h-3.08v-18.97h3.08Z"/>
  <polygon points="30.2 205.79 30.2 213.23 30.66 213.67 45.76 213.67 46.22 213.23 46.22 205.79 49.3 205.79 49.3 224.47 46.22 224.76 46.22 216.44 45.76 216.01 30.66 216.01 30.2 216.44 30.2 224.76 27.63 224.73 27.12 224.32 27.12 205.79 30.2 205.79"/>
  <path d="M322.63,205.79v2.63h-15.41v6.13h8.47c.72.58.72,2.04,0,2.63h-8.47v7.15c0,.77-2.77.29-3.39.15v-18.68h18.8Z"/>
  <path d="M12.33,208.42v15.91c0,.51-3.2.42-3.31,0l-.08-15.91H0v-2.63h21.11c.72.58.72,2.04,0,2.63h-8.78Z"/>
  <polygon points="412.3 205.79 412.3 222.14 427.4 222.14 427.36 224.28 426.63 224.76 409.22 224.76 409.22 205.79 412.3 205.79"/>
  <path class="cls-1" d="M328.48,26.28v121.72c-.3-.09-.67.29-.77.29h-197.21l-.46-.44V26.28h198.45Z"/>
  <path d="M365.77,209.44c-.34-2.96-1.55-3.44-4.46-3.66-3.64-.27-11.87-.39-15.34.09-2.27.31-3.01,1.16-3.28,3.31-.34,2.74-.36,9.49-.04,12.23.15,1.31.55,2.4,1.91,2.87,2.49.86,12.74.71,15.83.5,2.11-.14,4.18-.18,4.99-2.28.67-1.74.64-10.88.39-13.06ZM362.38,222.14h-16.33v-13.72h16.33v13.72Z"/>
  <path d="M293.68,210.01c-.08-1.06-.3-2.99-1.35-3.52-.87-.44-2.14-.64-3.12-.71-2.8-.2-14.5-.35-16.57.38-1.61.57-1.95,1.73-2.1,3.27-.26,2.81-.34,9.25,0,11.99.17,1.37.75,2.48,2.16,2.91,2.61.81,13.05.68,16.19.45,1.96-.14,3.56-.22,4.29-2.06.83-2.08.67-10.12.49-12.7ZM290.27,222.14h-16.33v-13.72h16.18c.44.26.43.58.48,1.01.11.85.35,12.71-.32,12.71Z"/>
  <path d="M157.17,209.43c-.21-2.28-1.07-3.37-3.56-3.64-3.25-.34-13.12-.39-16.26.07-2.17.32-3,1.27-3.28,3.31-.35,2.58-.3,9.01-.02,11.65.15,1.4.73,3.23,2.37,3.59,2.9.64,15.57.71,18.35,0,1.85-.48,2.2-1.59,2.38-3.29.3-2.91.29-8.76.02-11.68ZM154.07,222.14h-16.64v-13.72h16.18l.46.44v13.28Z"/>
</svg>